<svg xmlns="http://www.w3.org/2000/svg" xmlns:xlink="http://www.w3.org/1999/xlink" width="40" zoomAndPan="magnify" viewBox="0 0 30 30.000001" height="40" preserveAspectRatio="xMidYMid meet" version="1.0"><defs><clipPath id="774d11aa6b"><path d="M 0.484375 0 L 29.515625 0 L 29.515625 29.03125 L 0.484375 29.03125 Z M 0.484375 0 " clip-rule="nonzero"/></clipPath></defs><g clip-path="url(#774d11aa6b)"><path fill="#000000" d="M 15 0 C 6.996094 0 0.484375 6.511719 0.484375 14.515625 C 0.484375 22.519531 6.996094 29.03125 15 29.03125 C 23.003906 29.03125 29.515625 22.519531 29.515625 14.515625 C 29.515625 6.511719 23.003906 0 15 0 Z M 15 27.097656 C 8.0625 27.097656 2.417969 21.453125 2.417969 14.515625 C 2.417969 7.578125 8.0625 1.933594 15 1.933594 C 21.9375 1.933594 27.582031 7.578125 27.582031 14.515625 C 27.582031 21.453125 21.9375 27.097656 15 27.097656 Z M 15 27.097656 " fill-opacity="1" fill-rule="nonzero"/></g><path fill="#000000" d="M 20.0625 13.546875 L 15.96875 13.546875 L 15.96875 9.453125 C 15.96875 8.917969 15.535156 8.484375 15 8.484375 C 14.464844 8.484375 14.03125 8.917969 14.03125 9.453125 L 14.03125 13.546875 L 9.9375 13.546875 C 9.402344 13.546875 8.96875 13.980469 8.96875 14.515625 C 8.96875 15.050781 9.402344 15.484375 9.9375 15.484375 L 14.03125 15.484375 L 14.03125 19.578125 C 14.03125 20.113281 14.464844 20.546875 15 20.546875 C 15.535156 20.546875 15.96875 20.113281 15.96875 19.578125 L 15.96875 15.484375 L 20.0625 15.484375 C 20.597656 15.484375 21.03125 15.050781 21.03125 14.515625 C 21.03125 13.980469 20.597656 13.546875 20.0625 13.546875 Z M 20.0625 13.546875 " fill-opacity="1" fill-rule="nonzero"/></svg>